<?xml version="1.0" encoding="UTF-8"?>
<svg id="Layer_1" data-name="Layer 1" xmlns="http://www.w3.org/2000/svg" viewBox="0 0 121.38 134.62">
  <defs>
    <style>
      .cls-1 {
        fill: #f7c32f;
      }

      .cls-2 {
        fill: #0c1a7d;
      }

      .cls-3 {
        fill: #2640ff;
      }
    </style>
  </defs>
  <g>
    <polygon class="cls-3" points="0 45.65 20.9 109.96 34.96 66.67 0 45.65"/>
    <polygon class="cls-3" points="60.59 81.37 39.22 68.59 25.26 113.3 95.93 113.3 82.28 68.43 60.59 81.37"/>
    <polygon class="cls-3" points="86.42 66.67 100.48 109.96 121.38 45.65 86.42 66.67"/>
    <polygon class="cls-1" points="56.78 0 1.13 40.44 36.7 61.82 56.78 0"/>
    <polygon class="cls-1" points="60.68 76.05 80.91 63.89 60.68 1.63 40.45 63.89 60.68 76.05"/>
    <polygon class="cls-1" points="120.24 40.44 64.59 0 84.67 61.82 120.24 40.44"/>
  </g>
  <g>
    <path class="cls-2" d="m33.31,130.07c-.05.47-.23.91-.52,1.3-.3.4-.7.72-1.18.95-.49.23-1.07.35-1.74.35-.86,0-1.58-.2-2.14-.59-.56-.39-.99-.93-1.27-1.6-.29-.68-.43-1.43-.43-2.22s.15-1.56.43-2.22c.28-.65.71-1.17,1.26-1.55.55-.38,1.26-.57,2.11-.57.98,0,1.77.25,2.33.73.57.49.91,1.09,1.03,1.83l.03.21h2.04l-.03-.27c-.09-.9-.38-1.7-.87-2.37-.48-.67-1.12-1.19-1.9-1.55-.77-.36-1.66-.54-2.64-.54s-1.84.18-2.58.53c-.74.35-1.37.83-1.87,1.42-.49.59-.87,1.25-1.11,1.98-.25.72-.37,1.47-.37,2.23v.3c0,.74.12,1.49.37,2.22.25.73.62,1.41,1.11,2.01.5.61,1.13,1.1,1.87,1.45.74.35,1.62.53,2.62.53s1.88-.19,2.67-.55c.8-.37,1.46-.89,1.96-1.56.51-.68.8-1.48.86-2.39l.02-.27h-2.04l-.02.22Z"/>
    <path class="cls-2" d="m45.21,122.66c-.74-.3-1.72-.45-2.91-.45-.33,0-.68,0-1.03.01-.36,0-.71.03-1.04.05l-1.2.11v1.93l.27-.03c.3-.03.64-.05,1.04-.07.39-.02.81-.04,1.25-.05.44-.01.87-.02,1.3-.02.86,0,1.5.2,1.89.6.4.4.6,1,.6,1.78v.29h-2.94c-.98,0-1.83.15-2.52.44-.71.3-1.27.74-1.64,1.31-.38.57-.57,1.27-.57,2.08s.18,1.53.54,2.12c.36.58.88,1.04,1.54,1.35.65.3,1.4.46,2.24.46s1.56-.15,2.18-.46c.59-.29,1.07-.71,1.43-1.26v1.42h1.79v-7.59c0-1.04-.18-1.9-.53-2.55-.36-.66-.93-1.15-1.69-1.46Zm.16,7.13c-.03.76-.19,1.37-.49,1.79-.3.42-.68.73-1.12.9-.46.18-.94.27-1.44.27-.8,0-1.43-.19-1.89-.58-.45-.38-.67-.88-.67-1.52s.21-1.14.64-1.53c.43-.39,1.08-.59,1.91-.59h3.05v1.26Z"/>
    <path class="cls-2" d="m66.19,122.67c-.64-.45-1.44-.67-2.4-.67h-.06c-.96,0-1.76.23-2.4.68-.6.42-1.05,1.01-1.37,1.75-.31-.75-.76-1.34-1.35-1.76-.63-.45-1.43-.67-2.39-.67h-.06c-.96,0-1.76.23-2.39.68-.45.33-.83.75-1.11,1.26v-1.62h-1.79v11.94h2.12v-7.13c0-.97.26-1.74.77-2.3.51-.56,1.19-.83,2.07-.83s1.48.26,1.92.79c.45.54.68,1.29.68,2.24v7.24h2.12v-7.13c0-.97.26-1.74.77-2.3.51-.56,1.19-.83,2.07-.83s1.48.26,1.92.79c.45.54.68,1.29.68,2.24v7.24h2.12v-6.88c0-1.09-.15-2.04-.46-2.83-.31-.81-.79-1.44-1.43-1.88Z"/>
    <path class="cls-2" d="m79.88,122.79c-.84-.56-1.89-.84-3.13-.84-.97,0-1.83.18-2.56.53-.73.35-1.34.83-1.82,1.42-.48.58-.84,1.25-1.07,1.98-.23.72-.35,1.48-.35,2.23v.3c0,.77.12,1.53.35,2.25.23.73.59,1.4,1.07,1.99.48.6,1.11,1.08,1.86,1.43.75.35,1.64.53,2.65.53.94,0,1.78-.16,2.52-.47.74-.32,1.36-.77,1.84-1.35.49-.58.81-1.29.96-2.09l.06-.3h-2.01l-.04.19c-.13.56-.48,1.05-1.05,1.46-.57.42-1.34.63-2.27.63-.88,0-1.61-.2-2.18-.58-.57-.39-.99-.92-1.27-1.58-.22-.53-.35-1.11-.4-1.74h9.37v-1.09c0-.98-.21-1.92-.63-2.78-.42-.86-1.06-1.58-1.89-2.14Zm-6.45,3.22c.27-.64.69-1.17,1.24-1.55.54-.38,1.24-.58,2.08-.58s1.46.17,1.99.51c.52.34.93.81,1.2,1.4.17.38.29.79.36,1.25h-7.18c.07-.37.17-.71.31-1.03Z"/>
    <path class="cls-2" d="m97.07,125.88c-.28-.74-.69-1.41-1.23-1.99-.54-.58-1.2-1.06-1.97-1.41-.77-.35-1.67-.53-2.66-.53s-1.87.18-2.64.53c-.77.35-1.43.82-1.97,1.41-.54.58-.95,1.25-1.24,1.99-.28.74-.43,1.5-.43,2.26v.3c0,.76.14,1.52.42,2.25.27.73.68,1.4,1.21,1.99.53.59,1.19,1.07,1.96,1.42.77.35,1.67.53,2.68.53s1.91-.18,2.69-.53c.78-.35,1.44-.83,1.97-1.42.53-.59.94-1.26,1.2-1.99.27-.73.4-1.48.4-2.24v-.3c0-.76-.14-1.52-.42-2.26Zm-1.68,2.41c0,.81-.17,1.55-.49,2.21-.32.65-.8,1.19-1.41,1.58-.61.4-1.38.6-2.27.6s-1.64-.2-2.25-.6c-.61-.4-1.09-.93-1.41-1.58-.33-.66-.49-1.4-.49-2.21s.17-1.57.5-2.23c.33-.65.81-1.18,1.43-1.56.62-.38,1.36-.58,2.22-.58s1.62.19,2.24.58c.62.38,1.1.91,1.43,1.56.33.66.5,1.41.5,2.23Z"/>
  </g>
</svg>